<svg xmlns="http://www.w3.org/2000/svg" width="400" height="200" viewBox="0 0 400 200"><rect width="100%" height="100%" fill="#FFA500"/><path fill="#FFFFFF" d="M98.305 123.625h12.24q3.37 0 5.67-.81 2.29-.81 3.67-2.16 1.37-1.35 1.98-3.15.6-1.8.6-3.82 0-2.12-.67-3.81-.68-1.68-2.12-2.88-1.44-1.19-3.71-1.82-2.27-.63-5.47-.63h-12.19v19.08Zm10.3-46.26h-10.3v18.81h9.63q6.21 0 9.38-2.25 3.17-2.25 3.17-7.15 0-5.09-2.88-7.25t-9-2.16Zm-22.41-9.36h22.41q6.39 0 10.94 1.22 4.54 1.21 7.45 3.46 2.9 2.25 4.25 5.44 1.35 3.2 1.35 7.21 0 2.29-.68 4.38-.67 2.09-2.09 3.92-1.42 1.82-3.6 3.31-2.18 1.48-5.2 2.51 13.41 3.02 13.41 14.49 0 4.15-1.57 7.66-1.58 3.51-4.59 6.05-3.02 2.54-7.43 3.98t-10.08 1.44h-24.57v-65.07Zm67.32 21.69.68 5.22q2.16-4.14 5.13-6.5 2.97-2.36 7.02-2.36 3.19 0 5.13 1.39l-.72 8.33q-.23.81-.65 1.14-.43.34-1.15.34-.68 0-2-.23-1.33-.22-2.59-.22-1.85 0-3.29.54t-2.58 1.55q-1.15 1.02-2.03 2.46-.88 1.43-1.64 3.28v28.44h-11.12v-46.17h6.53q1.71 0 2.38.61.68.61.9 2.18Zm48.15 31.46v-7.79q-4.81.23-8.1.83-3.28.61-5.26 1.56-1.98.94-2.84 2.2-.85 1.26-.85 2.74 0 2.93 1.73 4.19 1.73 1.26 4.52 1.26 3.42 0 5.92-1.24 2.5-1.23 4.88-3.75Zm-23.49-24.26-1.98-3.55q7.97-7.29 19.17-7.29 4.05 0 7.25 1.32 3.19 1.33 5.4 3.69 2.2 2.37 3.35 5.65 1.15 3.29 1.15 7.2v29.16h-5.04q-1.58 0-2.43-.47-.86-.47-1.35-1.91l-.99-3.33q-1.76 1.57-3.42 2.76-1.67 1.2-3.47 2.01-1.8.8-3.84 1.23-2.05.43-4.53.43-2.92 0-5.4-.79-2.47-.78-4.27-2.36-1.8-1.57-2.79-3.91-.99-2.35-.99-5.45 0-1.75.58-3.49.59-1.73 1.92-3.31 1.32-1.57 3.44-2.96 2.11-1.4 5.2-2.43 3.08-1.04 7.17-1.69 4.1-.65 9.36-.79v-2.7q0-4.64-1.98-6.86-1.98-2.23-5.71-2.23-2.7 0-4.48.63-1.78.63-3.13 1.42-1.35.79-2.45 1.42-1.1.62-2.45.62-1.17 0-1.98-.6-.81-.61-1.31-1.42Zm54.41-7.96.76 3.64q1.4-1.39 2.95-2.59 1.55-1.19 3.29-2.02 1.73-.84 3.71-1.31 1.98-.47 4.32-.47 3.78 0 6.7 1.28 2.93 1.29 4.89 3.6 1.95 2.32 2.97 5.54 1.01 3.22 1.01 7.09v29.38h-11.12v-29.38q0-4.24-1.93-6.55-1.94-2.32-5.9-2.32-2.88 0-5.4 1.3-2.52 1.31-4.77 3.56v33.39h-11.11v-46.17h6.79q2.16 0 2.84 2.03Zm70.11 30.46v-20.7q-1.89-2.29-4.12-3.24-2.23-.94-4.79-.94-2.52 0-4.55.94-2.02.95-3.46 2.86t-2.21 4.86q-.76 2.95-.76 6.95 0 4.05.65 6.86.65 2.81 1.87 4.59 1.21 1.78 2.97 2.57 1.75.79 3.91.79 3.47 0 5.9-1.44 2.43-1.45 4.59-4.1Zm0-53.19h11.11v66.87h-6.79q-2.21 0-2.79-2.02l-.95-4.46q-2.79 3.2-6.41 5.18-3.62 1.97-8.44 1.97-3.78 0-6.93-1.57-3.15-1.58-5.42-4.57t-3.51-7.4q-1.24-4.41-1.24-10.08 0-5.13 1.4-9.54 1.39-4.41 4-7.65 2.61-3.24 6.26-5.06 3.64-1.82 8.19-1.82 3.87 0 6.61 1.21 2.75 1.22 4.91 3.29v-24.35Z"/></svg>