<svg xmlns="http://www.w3.org/2000/svg" width="200" height="200" viewBox="0 0 200 200"><rect width="100%" height="100%" fill="#FFA500"/><path fill="#FFFFFF" d="M49.15 111.82h6.12q1.69 0 2.83-.41 1.15-.41 1.84-1.08.68-.67.99-1.58.3-.9.3-1.91 0-1.05-.34-1.9-.33-.84-1.05-1.44-.72-.59-1.86-.91-1.14-.31-2.73-.31h-6.1v9.54Zm5.15-23.14h-5.15v9.41h4.81q3.11 0 4.7-1.12 1.58-1.13 1.58-3.58 0-2.55-1.44-3.62-1.44-1.09-4.5-1.09Zm-11.2-4.67h11.2q3.2 0 5.47.6 2.27.61 3.72 1.73 1.45 1.13 2.13 2.73.67 1.59.67 3.6 0 1.15-.33 2.19-.34 1.05-1.05 1.96-.71.91-1.8 1.65-1.09.75-2.6 1.26 6.71 1.51 6.71 7.25 0 2.07-.79 3.82-.79 1.76-2.3 3.03-1.5 1.27-3.71 1.99-2.2.72-5.04.72H43.1V84.01Zm33.66 10.84.33 2.61q1.08-2.07 2.57-3.25 1.48-1.18 3.51-1.18 1.6 0 2.56.7l-.36 4.16q-.11.4-.32.57-.22.17-.58.17-.33 0-1-.11-.66-.11-1.29-.11-.92 0-1.64.27-.72.27-1.3.77-.57.51-1.01 1.23-.44.72-.82 1.64v14.22h-5.56V93.45h3.26q.86 0 1.2.31.33.3.45 1.09Zm24.07 15.73v-3.9q-2.41.12-4.05.42-1.64.31-2.63.78-.99.47-1.42 1.1-.43.63-.43 1.37 0 1.47.87 2.1.87.63 2.26.63 1.71 0 2.96-.62t2.44-1.88ZM89.09 98.45l-.99-1.78q3.98-3.64 9.58-3.64 2.03 0 3.62.66 1.6.67 2.7 1.85 1.11 1.18 1.68 2.82.57 1.64.57 3.6v14.58h-2.52q-.78 0-1.21-.24-.43-.23-.68-.95l-.49-1.67q-.88.79-1.71 1.39-.83.59-1.73 1-.9.4-1.93.62-1.02.21-2.26.21-1.46 0-2.7-.39-1.24-.4-2.14-1.18-.9-.79-1.39-1.96-.5-1.17-.5-2.72 0-.88.3-1.75.29-.86.95-1.65.67-.79 1.72-1.49 1.06-.69 2.6-1.21t3.59-.85q2.05-.32 4.68-.39v-1.35q0-2.32-.99-3.43-.99-1.12-2.86-1.12-1.35 0-2.23.32-.89.31-1.57.71l-1.22.71q-.56.31-1.23.31-.59 0-.99-.3-.41-.3-.65-.71Zm27.2-3.98.38 1.82q.7-.7 1.48-1.29.77-.6 1.64-1.02.86-.41 1.85-.65.99-.24 2.16-.24 1.89 0 3.36.65 1.46.64 2.44 1.8.98 1.16 1.48 2.76.51 1.61.51 3.55v14.69h-5.56v-14.69q0-2.12-.97-3.28-.96-1.16-2.94-1.16-1.44 0-2.7.66-1.26.65-2.39 1.77v16.7h-5.56V93.45h3.4q1.08 0 1.42 1.02Zm35.05 15.23V99.35q-.94-1.15-2.05-1.62-1.12-.47-2.4-.47-1.26 0-2.27.47-1.02.47-1.74 1.43-.72.95-1.1 2.43-.38 1.47-.38 3.48 0 2.02.33 3.43.32 1.4.93 2.29.61.89 1.48 1.28.88.4 1.96.4 1.73 0 2.95-.72 1.21-.72 2.29-2.05Zm0-26.6h5.56v33.44h-3.4q-1.1 0-1.39-1.01l-.47-2.23q-1.4 1.6-3.21 2.59-1.81.99-4.22.99-1.89 0-3.46-.79-1.58-.79-2.71-2.28-1.14-1.5-1.76-3.7-.62-2.21-.62-5.04 0-2.57.7-4.78.7-2.2 2-3.82 1.31-1.62 3.13-2.53 1.82-.91 4.09-.91 1.94 0 3.31.61 1.37.6 2.45 1.64V83.1Z"/></svg>